<svg width="188" height="66" viewBox="0 0 188 66" fill="none" xmlns="http://www.w3.org/2000/svg">
<rect width="188" height="66" rx="10" fill="#EBEFF3"/>
<g clip-path="url(#clip0_3496_500)">
<path d="M37.008 17H54.992C58.8625 17 62 20.1375 62 24.008V41.992C62 45.8625 58.8625 49 54.992 49H37.008C33.1375 49 30 45.8625 30 41.992V24.008C30 20.1375 33.1375 17 37.008 17Z" fill="url(#paint0_linear_3496_500)"/>
<path d="M40.2525 40.2256L40.2555 40.2266L39.1614 42.1216C38.762 42.8133 37.8775 43.0503 37.1857 42.651C36.4941 42.2516 36.257 41.3671 36.6564 40.6753L37.4624 39.2793L37.5397 39.1453C37.6779 38.9468 38.0187 38.6041 38.7006 38.6686C38.7006 38.6686 40.3052 38.8427 40.4214 39.6767C40.4214 39.6767 40.4371 39.9511 40.2525 40.2256ZM55.7704 35.3856H52.3586C52.1262 35.37 52.0249 35.287 51.9849 35.2387L51.9824 35.2343L48.3302 28.9086L48.3255 28.9117L48.1065 28.5977C47.7475 28.0487 47.1775 29.4527 47.1775 29.4527C46.4969 31.0172 47.2741 32.7958 47.545 33.3335L52.6177 42.1197C53.017 42.8113 53.9015 43.0485 54.5934 42.649C55.285 42.2496 55.5221 41.3651 55.1226 40.6733L53.8542 38.4763C53.8296 38.4231 53.7869 38.2786 54.047 38.278H55.7704C56.5691 38.278 57.2166 37.6305 57.2166 36.8317C57.2166 36.033 56.5691 35.3855 55.7704 35.3855V35.3856ZM49.1436 37.3516C49.1436 37.3516 49.3257 38.278 48.6211 38.278H36.0087C35.21 38.278 34.5625 37.6305 34.5625 36.8317C34.5625 36.033 35.21 35.3855 36.0087 35.3855H39.2512C39.7747 35.3552 39.8987 35.053 39.8987 35.053L39.9017 35.0545L44.1342 27.7235L44.133 27.7232C44.2101 27.5816 44.1459 27.4477 44.1347 27.4266L42.7369 25.0055C42.3375 24.3139 42.5745 23.4292 43.2662 23.03C43.958 22.6306 44.8425 22.8675 45.2419 23.5592L45.8901 24.6821L46.5372 23.5612C46.9366 22.8696 47.8211 22.6325 48.5129 23.032C49.2046 23.4313 49.4416 24.3157 49.0422 25.0075L43.1525 35.2087C43.1267 35.2708 43.1189 35.3683 43.3105 35.3855H46.831L46.8317 35.4198C46.8317 35.4198 48.8665 35.4515 49.1436 37.3516Z" fill="white"/>
</g>
<path d="M73.856 39L78.848 27.8H81.408L86.416 39H83.696L79.6 29.112H80.624L76.512 39H73.856ZM76.352 36.6L77.04 34.632H82.8L83.504 36.6H76.352ZM92.49 39.128C91.7647 39.128 91.13 38.968 90.586 38.648C90.042 38.328 89.6153 37.8427 89.306 37.192C89.0073 36.5307 88.858 35.6987 88.858 34.696C88.858 33.6827 89.002 32.8507 89.29 32.2C89.578 31.5493 89.994 31.064 90.538 30.744C91.082 30.424 91.7327 30.264 92.49 30.264C93.3007 30.264 94.026 30.4507 94.666 30.824C95.3167 31.1867 95.8287 31.6987 96.202 32.36C96.586 33.0213 96.778 33.8 96.778 34.696C96.778 35.6027 96.586 36.3867 96.202 37.048C95.8287 37.7093 95.3167 38.2213 94.666 38.584C94.026 38.9467 93.3007 39.128 92.49 39.128ZM87.402 42.104V30.392H89.786V32.152L89.738 34.712L89.898 37.256V42.104H87.402ZM92.058 37.08C92.474 37.08 92.842 36.984 93.162 36.792C93.4927 36.6 93.754 36.328 93.946 35.976C94.1487 35.6133 94.25 35.1867 94.25 34.696C94.25 34.1947 94.1487 33.768 93.946 33.416C93.754 33.064 93.4927 32.792 93.162 32.6C92.842 32.408 92.474 32.312 92.058 32.312C91.642 32.312 91.2687 32.408 90.938 32.6C90.6073 32.792 90.346 33.064 90.154 33.416C89.962 33.768 89.866 34.1947 89.866 34.696C89.866 35.1867 89.962 35.6133 90.154 35.976C90.346 36.328 90.6073 36.6 90.938 36.792C91.2687 36.984 91.642 37.08 92.058 37.08ZM103.537 39.128C102.812 39.128 102.177 38.968 101.633 38.648C101.089 38.328 100.662 37.8427 100.353 37.192C100.054 36.5307 99.9049 35.6987 99.9049 34.696C99.9049 33.6827 100.049 32.8507 100.337 32.2C100.625 31.5493 101.041 31.064 101.585 30.744C102.129 30.424 102.78 30.264 103.537 30.264C104.348 30.264 105.073 30.4507 105.713 30.824C106.364 31.1867 106.876 31.6987 107.249 32.36C107.633 33.0213 107.825 33.8 107.825 34.696C107.825 35.6027 107.633 36.3867 107.249 37.048C106.876 37.7093 106.364 38.2213 105.713 38.584C105.073 38.9467 104.348 39.128 103.537 39.128ZM98.4489 42.104V30.392H100.833V32.152L100.785 34.712L100.945 37.256V42.104H98.4489ZM103.105 37.08C103.521 37.08 103.889 36.984 104.209 36.792C104.54 36.6 104.801 36.328 104.993 35.976C105.196 35.6133 105.297 35.1867 105.297 34.696C105.297 34.1947 105.196 33.768 104.993 33.416C104.801 33.064 104.54 32.792 104.209 32.6C103.889 32.408 103.521 32.312 103.105 32.312C102.689 32.312 102.316 32.408 101.985 32.6C101.654 32.792 101.393 33.064 101.201 33.416C101.009 33.768 100.913 34.1947 100.913 34.696C100.913 35.1867 101.009 35.6133 101.201 35.976C101.393 36.328 101.654 36.6 101.985 36.792C102.316 36.984 102.689 37.08 103.105 37.08ZM117.883 39.192C116.987 39.192 116.128 39.0747 115.307 38.84C114.486 38.5947 113.824 38.28 113.323 37.896L114.203 35.944C114.683 36.2853 115.248 36.568 115.899 36.792C116.56 37.0053 117.227 37.112 117.899 37.112C118.411 37.112 118.822 37.064 119.131 36.968C119.451 36.8613 119.686 36.7173 119.835 36.536C119.984 36.3547 120.059 36.1467 120.059 35.912C120.059 35.6133 119.942 35.3787 119.707 35.208C119.472 35.0267 119.163 34.8827 118.779 34.776C118.395 34.6587 117.968 34.552 117.499 34.456C117.04 34.3493 116.576 34.2213 116.107 34.072C115.648 33.9227 115.227 33.7307 114.843 33.496C114.459 33.2613 114.144 32.952 113.899 32.568C113.664 32.184 113.547 31.6933 113.547 31.096C113.547 30.456 113.718 29.8747 114.059 29.352C114.411 28.8187 114.934 28.3973 115.627 28.088C116.331 27.768 117.211 27.608 118.267 27.608C118.971 27.608 119.664 27.6933 120.347 27.864C121.03 28.024 121.632 28.2693 122.155 28.6L121.355 30.568C120.832 30.2693 120.31 30.0507 119.787 29.912C119.264 29.7627 118.752 29.688 118.251 29.688C117.75 29.688 117.339 29.7467 117.019 29.864C116.699 29.9813 116.47 30.136 116.331 30.328C116.192 30.5093 116.123 30.7227 116.123 30.968C116.123 31.256 116.24 31.4907 116.475 31.672C116.71 31.8427 117.019 31.9813 117.403 32.088C117.787 32.1947 118.208 32.3013 118.667 32.408C119.136 32.5147 119.6 32.6373 120.059 32.776C120.528 32.9147 120.955 33.1013 121.339 33.336C121.723 33.5707 122.032 33.88 122.267 34.264C122.512 34.648 122.635 35.1333 122.635 35.72C122.635 36.3493 122.459 36.9253 122.107 37.448C121.755 37.9707 121.227 38.392 120.523 38.712C119.83 39.032 118.95 39.192 117.883 39.192ZM127.75 39.128C126.737 39.128 125.947 38.872 125.382 38.36C124.817 37.8373 124.534 37.064 124.534 36.04V28.488H127.03V36.008C127.03 36.3707 127.126 36.6533 127.318 36.856C127.51 37.048 127.771 37.144 128.102 37.144C128.497 37.144 128.833 37.0373 129.11 36.824L129.782 38.584C129.526 38.7653 129.217 38.904 128.854 39C128.502 39.0853 128.134 39.128 127.75 39.128ZM123.206 32.504V30.584H129.174V32.504H123.206ZM135.014 39.128C134.096 39.128 133.28 38.936 132.566 38.552C131.862 38.168 131.302 37.6453 130.886 36.984C130.48 36.312 130.278 35.5493 130.278 34.696C130.278 33.832 130.48 33.0693 130.886 32.408C131.302 31.736 131.862 31.2133 132.566 30.84C133.28 30.456 134.096 30.264 135.014 30.264C135.92 30.264 136.731 30.456 137.446 30.84C138.16 31.2133 138.72 31.7307 139.126 32.392C139.531 33.0533 139.734 33.8213 139.734 34.696C139.734 35.5493 139.531 36.312 139.126 36.984C138.72 37.6453 138.16 38.168 137.446 38.552C136.731 38.936 135.92 39.128 135.014 39.128ZM135.014 37.08C135.43 37.08 135.803 36.984 136.134 36.792C136.464 36.6 136.726 36.328 136.918 35.976C137.11 35.6133 137.206 35.1867 137.206 34.696C137.206 34.1947 137.11 33.768 136.918 33.416C136.726 33.064 136.464 32.792 136.134 32.6C135.803 32.408 135.43 32.312 135.014 32.312C134.598 32.312 134.224 32.408 133.894 32.6C133.563 32.792 133.296 33.064 133.094 33.416C132.902 33.768 132.806 34.1947 132.806 34.696C132.806 35.1867 132.902 35.6133 133.094 35.976C133.296 36.328 133.563 36.6 133.894 36.792C134.224 36.984 134.598 37.08 135.014 37.08ZM141.402 39V30.392H143.786V32.824L143.45 32.12C143.706 31.512 144.117 31.0533 144.682 30.744C145.247 30.424 145.935 30.264 146.746 30.264V32.568C146.639 32.5573 146.543 32.552 146.458 32.552C146.373 32.5413 146.282 32.536 146.186 32.536C145.503 32.536 144.949 32.7333 144.522 33.128C144.106 33.512 143.898 34.1147 143.898 34.936V39H141.402ZM152.44 39.128C151.458 39.128 150.594 38.936 149.848 38.552C149.112 38.168 148.541 37.6453 148.136 36.984C147.73 36.312 147.528 35.5493 147.528 34.696C147.528 33.832 147.725 33.0693 148.12 32.408C148.525 31.736 149.074 31.2133 149.768 30.84C150.461 30.456 151.245 30.264 152.12 30.264C152.962 30.264 153.72 30.4453 154.392 30.808C155.074 31.16 155.613 31.672 156.008 32.344C156.402 33.0053 156.6 33.8 156.6 34.728C156.6 34.824 156.594 34.936 156.584 35.064C156.573 35.1813 156.562 35.2933 156.552 35.4H149.56V33.944H155.24L154.28 34.376C154.28 33.928 154.189 33.5387 154.008 33.208C153.826 32.8773 153.576 32.6213 153.256 32.44C152.936 32.248 152.562 32.152 152.136 32.152C151.709 32.152 151.33 32.248 151 32.44C150.68 32.6213 150.429 32.8827 150.248 33.224C150.066 33.5547 149.976 33.9493 149.976 34.408V34.792C149.976 35.2613 150.077 35.6773 150.28 36.04C150.493 36.392 150.786 36.664 151.16 36.856C151.544 37.0373 151.992 37.128 152.504 37.128C152.962 37.128 153.362 37.0587 153.704 36.92C154.056 36.7813 154.376 36.5733 154.664 36.296L155.992 37.736C155.597 38.184 155.101 38.5307 154.504 38.776C153.906 39.0107 153.218 39.128 152.44 39.128Z" fill="#0A1729"/>
<defs>
<linearGradient id="paint0_linear_3496_500" x1="46" y1="17" x2="46" y2="49" gradientUnits="userSpaceOnUse">
<stop stop-color="#17C9FB"/>
<stop offset="1" stop-color="#1A74E8"/>
</linearGradient>
<clipPath id="clip0_3496_500">
<rect width="32" height="32" fill="white" transform="translate(30 17)"/>
</clipPath>
</defs>
</svg>
