<svg width="204" height="67" viewBox="0 0 204 67" fill="none" xmlns="http://www.w3.org/2000/svg">
<rect width="204" height="66.25" rx="10" fill="#EBEFF3"/>
<g clip-path="url(#clip0_3496_491)">
<path d="M53.6037 38.3589C57.6612 36.131 60.7371 34.4334 61.0022 34.3014C61.8503 33.8504 62.7262 32.6566 61.0022 31.7294C60.4456 31.4377 57.4487 29.793 53.6037 27.6719L48.2734 33.055L53.6037 38.3587V38.3589Z" fill="#FFD900"/>
<path d="M48.269 33.0547L31.2969 50.1601C31.6953 50.2128 32.145 50.1072 32.6752 49.8157C33.7885 49.2063 45.59 42.7614 53.5993 38.3598L48.269 33.0547Z" fill="#F43249"/>
<path d="M48.2719 33.0555L53.6022 27.6989C53.6022 27.6989 33.8719 16.9312 32.6782 16.2956C32.2284 16.0292 31.7244 15.9501 31.2734 16.0292L48.2719 33.0555Z" fill="#00EE76"/>
<path d="M48.2714 33.0555L31.2729 16.0293C30.583 16.1888 30 16.7983 30 18.0448V48.1454C30 49.2863 30.4511 50.108 31.2993 50.1873L48.2714 33.0555Z" fill="#00D3FF"/>
</g>
<path d="M80.736 39.317C79.8507 39.317 79.0347 39.1783 78.288 38.901C77.552 38.613 76.9067 38.2077 76.352 37.685C75.808 37.1623 75.3813 36.549 75.072 35.845C74.7733 35.141 74.624 34.3677 74.624 33.525C74.624 32.6823 74.7733 31.909 75.072 31.205C75.3813 30.501 75.8133 29.8877 76.368 29.365C76.9227 28.8423 77.5733 28.4423 78.32 28.165C79.0667 27.877 79.888 27.733 80.784 27.733C81.776 27.733 82.6667 27.8983 83.456 28.229C84.256 28.5597 84.928 29.0397 85.472 29.669L83.808 31.205C83.4027 30.7783 82.96 30.4637 82.48 30.261C82 30.0477 81.4773 29.941 80.912 29.941C80.368 29.941 79.872 30.0263 79.424 30.197C78.976 30.3677 78.5867 30.613 78.256 30.933C77.936 31.253 77.6853 31.6317 77.504 32.069C77.3333 32.5063 77.248 32.9917 77.248 33.525C77.248 34.0477 77.3333 34.5277 77.504 34.965C77.6853 35.4023 77.936 35.7863 78.256 36.117C78.5867 36.437 78.9707 36.6823 79.408 36.853C79.856 37.0237 80.3467 37.109 80.88 37.109C81.392 37.109 81.888 37.029 82.368 36.869C82.8587 36.6983 83.3333 36.4157 83.792 36.021L85.264 37.893C84.656 38.3517 83.9467 38.7037 83.136 38.949C82.336 39.1943 81.536 39.317 80.736 39.317ZM82.896 37.557V33.349H85.264V37.893L82.896 37.557ZM91.5918 39.253C90.6744 39.253 89.8584 39.061 89.1438 38.677C88.4398 38.293 87.8798 37.7703 87.4638 37.109C87.0584 36.437 86.8558 35.6743 86.8558 34.821C86.8558 33.957 87.0584 33.1943 87.4638 32.533C87.8798 31.861 88.4398 31.3383 89.1438 30.965C89.8584 30.581 90.6744 30.389 91.5918 30.389C92.4984 30.389 93.3091 30.581 94.0238 30.965C94.7384 31.3383 95.2984 31.8557 95.7038 32.517C96.1091 33.1783 96.3118 33.9463 96.3118 34.821C96.3118 35.6743 96.1091 36.437 95.7038 37.109C95.2984 37.7703 94.7384 38.293 94.0238 38.677C93.3091 39.061 92.4984 39.253 91.5918 39.253ZM91.5918 37.205C92.0078 37.205 92.3811 37.109 92.7118 36.917C93.0424 36.725 93.3038 36.453 93.4958 36.101C93.6878 35.7383 93.7838 35.3117 93.7838 34.821C93.7838 34.3197 93.6878 33.893 93.4958 33.541C93.3038 33.189 93.0424 32.917 92.7118 32.725C92.3811 32.533 92.0078 32.437 91.5918 32.437C91.1758 32.437 90.8024 32.533 90.4718 32.725C90.1411 32.917 89.8744 33.189 89.6718 33.541C89.4798 33.893 89.3838 34.3197 89.3838 34.821C89.3838 35.3117 89.4798 35.7383 89.6718 36.101C89.8744 36.453 90.1411 36.725 90.4718 36.917C90.8024 37.109 91.1758 37.205 91.5918 37.205ZM102.076 39.253C101.159 39.253 100.343 39.061 99.6281 38.677C98.9241 38.293 98.3641 37.7703 97.9481 37.109C97.5428 36.437 97.3401 35.6743 97.3401 34.821C97.3401 33.957 97.5428 33.1943 97.9481 32.533C98.3641 31.861 98.9241 31.3383 99.6281 30.965C100.343 30.581 101.159 30.389 102.076 30.389C102.983 30.389 103.793 30.581 104.508 30.965C105.223 31.3383 105.783 31.8557 106.188 32.517C106.593 33.1783 106.796 33.9463 106.796 34.821C106.796 35.6743 106.593 36.437 106.188 37.109C105.783 37.7703 105.223 38.293 104.508 38.677C103.793 39.061 102.983 39.253 102.076 39.253ZM102.076 37.205C102.492 37.205 102.865 37.109 103.196 36.917C103.527 36.725 103.788 36.453 103.98 36.101C104.172 35.7383 104.268 35.3117 104.268 34.821C104.268 34.3197 104.172 33.893 103.98 33.541C103.788 33.189 103.527 32.917 103.196 32.725C102.865 32.533 102.492 32.437 102.076 32.437C101.66 32.437 101.287 32.533 100.956 32.725C100.625 32.917 100.359 33.189 100.156 33.541C99.9641 33.893 99.8681 34.3197 99.8681 34.821C99.8681 35.3117 99.9641 35.7383 100.156 36.101C100.359 36.453 100.625 36.725 100.956 36.917C101.287 37.109 101.66 37.205 102.076 37.205ZM112.513 42.357C111.702 42.357 110.918 42.2557 110.161 42.053C109.414 41.861 108.79 41.5677 108.289 41.173L109.281 39.381C109.643 39.6797 110.102 39.9143 110.657 40.085C111.222 40.2663 111.777 40.357 112.321 40.357C113.206 40.357 113.846 40.1597 114.241 39.765C114.646 39.3703 114.849 38.7837 114.849 38.005V36.709L115.009 34.549L114.977 32.373V30.517H117.345V37.685C117.345 39.285 116.929 40.4637 116.097 41.221C115.265 41.9783 114.07 42.357 112.513 42.357ZM112.129 38.709C111.329 38.709 110.603 38.5383 109.953 38.197C109.313 37.845 108.795 37.3597 108.401 36.741C108.017 36.1117 107.825 35.381 107.825 34.549C107.825 33.7063 108.017 32.9757 108.401 32.357C108.795 31.7277 109.313 31.2423 109.953 30.901C110.603 30.5597 111.329 30.389 112.129 30.389C112.854 30.389 113.494 30.5383 114.049 30.837C114.603 31.125 115.035 31.5783 115.345 32.197C115.654 32.805 115.809 33.589 115.809 34.549C115.809 35.4983 115.654 36.2823 115.345 36.901C115.035 37.509 114.603 37.9623 114.049 38.261C113.494 38.5597 112.854 38.709 112.129 38.709ZM112.625 36.661C113.062 36.661 113.451 36.5757 113.793 36.405C114.134 36.2237 114.401 35.973 114.593 35.653C114.785 35.333 114.881 34.965 114.881 34.549C114.881 34.1223 114.785 33.7543 114.593 33.445C114.401 33.125 114.134 32.8797 113.793 32.709C113.451 32.5277 113.062 32.437 112.625 32.437C112.187 32.437 111.798 32.5277 111.457 32.709C111.115 32.8797 110.843 33.125 110.641 33.445C110.449 33.7543 110.353 34.1223 110.353 34.549C110.353 34.965 110.449 35.333 110.641 35.653C110.843 35.973 111.115 36.2237 111.457 36.405C111.798 36.5757 112.187 36.661 112.625 36.661ZM119.668 39.125V27.253H122.164V39.125H119.668ZM128.752 39.253C127.771 39.253 126.907 39.061 126.16 38.677C125.424 38.293 124.853 37.7703 124.448 37.109C124.043 36.437 123.84 35.6743 123.84 34.821C123.84 33.957 124.037 33.1943 124.432 32.533C124.837 31.861 125.387 31.3383 126.08 30.965C126.773 30.581 127.557 30.389 128.432 30.389C129.275 30.389 130.032 30.5703 130.704 30.933C131.387 31.285 131.925 31.797 132.32 32.469C132.715 33.1303 132.912 33.925 132.912 34.853C132.912 34.949 132.907 35.061 132.896 35.189C132.885 35.3063 132.875 35.4183 132.864 35.525H125.872V34.069H131.552L130.592 34.501C130.592 34.053 130.501 33.6637 130.32 33.333C130.139 33.0023 129.888 32.7463 129.568 32.565C129.248 32.373 128.875 32.277 128.448 32.277C128.021 32.277 127.643 32.373 127.312 32.565C126.992 32.7463 126.741 33.0077 126.56 33.349C126.379 33.6797 126.288 34.0743 126.288 34.533V34.917C126.288 35.3863 126.389 35.8023 126.592 36.165C126.805 36.517 127.099 36.789 127.472 36.981C127.856 37.1623 128.304 37.253 128.816 37.253C129.275 37.253 129.675 37.1837 130.016 37.045C130.368 36.9063 130.688 36.6983 130.976 36.421L132.304 37.861C131.909 38.309 131.413 38.6557 130.816 38.901C130.219 39.1357 129.531 39.253 128.752 39.253ZM139.281 39.125V27.925H144.129C145.132 27.925 145.996 28.0903 146.721 28.421C147.446 28.741 148.006 29.205 148.401 29.813C148.796 30.421 148.993 31.1463 148.993 31.989C148.993 32.821 148.796 33.541 148.401 34.149C148.006 34.757 147.446 35.2263 146.721 35.557C145.996 35.877 145.132 36.037 144.129 36.037H140.721L141.873 34.869V39.125H139.281ZM141.873 35.157L140.721 33.925H143.985C144.785 33.925 145.382 33.7543 145.777 33.413C146.172 33.0717 146.369 32.597 146.369 31.989C146.369 31.3703 146.172 30.8903 145.777 30.549C145.382 30.2077 144.785 30.037 143.985 30.037H140.721L141.873 28.805V35.157ZM150.824 39.125V27.253H153.32V39.125H150.824ZM160.916 39.125V37.445L160.756 37.077V34.069C160.756 33.5357 160.591 33.1197 160.26 32.821C159.94 32.5223 159.444 32.373 158.772 32.373C158.314 32.373 157.86 32.4477 157.412 32.597C156.975 32.7357 156.602 32.9277 156.292 33.173L155.396 31.429C155.866 31.0983 156.431 30.8423 157.092 30.661C157.754 30.4797 158.426 30.389 159.108 30.389C160.42 30.389 161.439 30.6983 162.164 31.317C162.89 31.9357 163.252 32.901 163.252 34.213V39.125H160.916ZM158.292 39.253C157.62 39.253 157.044 39.141 156.564 38.917C156.084 38.6823 155.716 38.3677 155.46 37.973C155.204 37.5783 155.076 37.1357 155.076 36.645C155.076 36.133 155.199 35.685 155.444 35.301C155.7 34.917 156.1 34.6183 156.644 34.405C157.188 34.181 157.898 34.069 158.772 34.069H161.06V35.525H159.044C158.458 35.525 158.052 35.621 157.828 35.813C157.615 36.005 157.508 36.245 157.508 36.533C157.508 36.853 157.631 37.109 157.876 37.301C158.132 37.4823 158.479 37.573 158.916 37.573C159.332 37.573 159.706 37.477 160.036 37.285C160.367 37.0823 160.607 36.789 160.756 36.405L161.14 37.557C160.959 38.1117 160.628 38.533 160.148 38.821C159.668 39.109 159.05 39.253 158.292 39.253ZM166.443 42.357C165.995 42.357 165.552 42.2877 165.115 42.149C164.678 42.0103 164.32 41.8183 164.043 41.573L164.955 39.797C165.147 39.9677 165.366 40.101 165.611 40.197C165.867 40.293 166.118 40.341 166.363 40.341C166.715 40.341 166.992 40.2557 167.195 40.085C167.408 39.925 167.6 39.653 167.771 39.269L168.219 38.213L168.411 37.941L171.499 30.517H173.899L170.011 39.653C169.734 40.3463 169.414 40.8903 169.051 41.285C168.699 41.6797 168.304 41.957 167.867 42.117C167.44 42.277 166.966 42.357 166.443 42.357ZM167.915 39.461L164.075 30.517H166.651L169.627 37.717L167.915 39.461Z" fill="#0A1729"/>
<defs>
<clipPath id="clip0_3496_491">
<rect width="32" height="34.25" fill="white" transform="translate(30 16)"/>
</clipPath>
</defs>
</svg>
